<svg width="16" height="17" viewBox="0 0 16 17" fill="none" xmlns="http://www.w3.org/2000/svg">
<path fill-rule="evenodd" clip-rule="evenodd" d="M0.592206 0.935226C1.06556 0.461881 1.83305 0.461861 2.30641 0.935226L8.0204 6.64922L13.7344 0.935226C14.2078 0.461865 14.9752 0.461853 15.4486 0.935222C15.9219 1.40857 15.922 2.17606 15.4486 2.64943L9.7346 8.36343L15.4486 14.0774C15.922 14.5508 15.9219 15.3183 15.4486 15.7916C14.9752 16.265 14.2078 16.265 13.7344 15.7916L8.0204 10.0776L2.30641 15.7916C1.83305 16.265 1.06556 16.265 0.59221 15.7916C0.118837 15.3183 0.118845 14.5508 0.59221 14.0774L6.30621 8.36343L0.59221 2.64942C0.118849 2.17606 0.118833 1.4086 0.592206 0.935226Z" fill="#112D6C"/>
</svg>
