<svg width="26" height="20" viewBox="0 0 26 20" fill="none" xmlns="http://www.w3.org/2000/svg">
<path fill-rule="evenodd" clip-rule="evenodd" d="M1.29032 0.322632C0.57771 0.322632 0 0.900309 0 1.61295C0 2.3256 0.57771 2.90328 1.29032 2.90328H24.5161C25.2287 2.90328 25.8065 2.3256 25.8065 1.61295C25.8065 0.900309 25.2287 0.322632 24.5161 0.322632H1.29032ZM1.29032 8.70973C0.57771 8.70973 0 9.28742 0 10.0001C0 10.7127 0.57771 11.2904 1.29032 11.2904H24.5161C25.2287 11.2904 25.8065 10.7127 25.8065 10.0001C25.8065 9.28742 25.2287 8.70973 24.5161 8.70973H1.29032ZM0 18.3872C0 17.6745 0.57771 17.0968 1.29032 17.0968H24.5161C25.2287 17.0968 25.8065 17.6745 25.8065 18.3872C25.8065 19.0998 25.2287 19.6775 24.5161 19.6775H1.29032C0.57771 19.6775 0 19.0998 0 18.3872Z" fill="#112D6B"/>
</svg>
